# xmcd
#
# Track frame offsets:
# 225
# 11686
# 23666
# 37469
# 49989
# 62591
# 74491
# 86541
# 101718
# 110984
# 122263
# 132178
#
# Disc length: 1862 seconds
#
#
# Revision: 0
# Processed by: cddbd v1.5.1PL0 Copyright (c) Steve Scherf et al.
# Submitted via: FreeRIP 2.90 
#
DISCID=ab07430c
DTITLE=Diverse - Westernhits  CD2
DYEAR=1900
DGENRE=Country
TTITLE0=Bonanza  -  Starlet Studio Band
TTITLE1=Oh my darling Caroline  -  Fred Karmann
TTITLE2=Abends auf der Ranch  -  Starlet Studio Band
TTITLE3=Shennandoah, I long to hear you - Billy Rider and his Band
TTITLE4=Weit ist die Prärie  -  Starlet Studio Band
TTITLE5=High noon  -  Hawkins and his Hillbilly's
TTITLE6=High Chaparal  -  Orchester Charles Parker
TTITLE7=Wild west story  -  Charles Parker
TTITLE8=Tom Dooley  -  Colorado Singers and Boycliff
TTITLE9=Hillibilly Jamboree  -  Orchester Charles Parker
TTITLE10=Oh Suzannah  -  Billy Rider and his Cowboys
TTITLE11=The Virginian  -  Orchester Charles Parker
EXTD=
EXTT0=
EXTT1=
EXTT2=
EXTT3=
EXTT4=
EXTT5=
EXTT6=
EXTT7=
EXTT8=
EXTT9=
EXTT10=
EXTT11=
PLAYORDER=
